<svg xmlns="http://www.w3.org/2000/svg" width="17.817" height="17.817" viewBox="0 0 17.817 17.817">
  <g id="Layer_3" data-name="Layer 3" transform="translate(-18.348 -15.023)">
    <g id="Group_15519" data-name="Group 15519" transform="translate(17.037 13.712)">
      <circle id="Ellipse_278" data-name="Ellipse 278" cx="8.908" cy="8.908" r="8.908" transform="translate(1.312 1.312)" fill="#f48944"/>
      <path id="Path_49578" data-name="Path 49578" d="M47.17,40.4c.091.049.177.107.271.149s.087,0,.079-.021l.021.029a.038.038,0,0,1,.032-.038l0,0c-.01-.059-.01-.059.031-.108-.007.038.006.076,0,.114l-.017,0h0c.013.055.012.06.007.079a.028.028,0,0,1-.016,0h0c.028.036.074.046.108.074a.227.227,0,0,1-.154.185,2.211,2.211,0,0,1,.436.672.11.11,0,0,1-.013-.034.836.836,0,0,1,.148.323l-.006.005c-.048-.028-.042-.09-.078-.125l-.006.009a.455.455,0,0,1,.018.054c-.014-.013-.014-.013-.025-.012,0,.031.025.059.013.091-.016,0-.054-.035-.035-.061a.063.063,0,0,0-.016-.01c-.008.011-.014.019.009.076a.121.121,0,0,0-.047,0h-.008a.1.1,0,0,1-.049-.009.333.333,0,0,1,0,.125h0c-.016.071-.054.017-.066,0s-.02-.03-.037-.059l.011.059,0,.014c.006.034.012.068.017.1-.032-.024-.046-.027-.055-.015a.105.105,0,0,0-.005.044.186.186,0,0,1-.005.064.306.306,0,0,0-.157-.108c.05,0,.071-.033.1-.1s.035-.081.065-.1c-.069-.085-.283,0-.314.078a.135.135,0,0,1,.046.025.648.648,0,0,1,.179.319c.017.088-.021.075-.032.067a1.419,1.419,0,0,1-.182-.231s0,0-.006,0,0,.005,0,.027a.149.149,0,0,0-.046-.067.092.092,0,0,1-.028-.11c.021-.067.138-.4.353-.274-.125-.241-.07-.243-.038-.243.065,0,.066-.3-.174-.525a.715.715,0,0,1,.092.06.843.843,0,0,0-.066-.086s0,0,0,.008-.013.012-.046,0c0,0-.257-.129-.111-.208a.11.11,0,0,1-.048-.036c-.044-.071-.07-.151-.114-.222ZM38.05,37.469a.469.469,0,0,0,.12-.052c.082-.041.093-.046.108-.042s0,.024-.061.057c.013.007.031.006.081,0a.432.432,0,0,1,.063-.011c.007-.025.009-.031,0-.045s-.039-.023-.058-.036a1.579,1.579,0,0,0,.22-.024c.094-.016.064-.066.063-.067a.107.107,0,0,0-.051-.007.639.639,0,0,0-.208.048v0a.246.246,0,0,0-.04,0c-.006,0-.006.01-.013.011a.07.07,0,0,0,.027.005l-.018.008c-.025-.012-.048,0-.081.03,0-.014-.023-.026-.011-.042a.1.1,0,0,1-.073.01.019.019,0,0,0-.012,0c-.014.009-.018.028-.035.035,0-.008,0-.008,0-.013s-.029.027-.024.034.013,0,.021-.015c.036.011.075-.006.111.009-.166.064-.166.064-.173.075S38.049,37.469,38.05,37.469Zm-2.122.793c.053-.033.294-.2.3-.2l-.008.008c.027,0,.033,0,.114-.05h0c.078-.05.189-.044.24-.141a.32.32,0,0,0-.062.017c.04-.023.079-.047.12-.069-.015.016-.033.03-.049.044a.4.4,0,0,0,.118-.064l-.024.012c.024-.014.049-.028.072-.044l-.025.013a.969.969,0,0,1,.107-.1.041.041,0,0,0,.053-.023l0,.011c.038.012.057-.024.087-.034-.017,0-.017,0-.043.015a.256.256,0,0,1,.125-.054c.069-.023.112-.083.176-.114l-.012,0V37.48c.042-.025.1-.016.135-.051H37.34a.171.171,0,0,0,.043-.023c-.01,0-.01,0-.046.011.147-.077.309-.116.461-.18l.034-.015c-.057-.015-.057-.015-.247.053.057-.087.208-.012.242-.138a.086.086,0,0,0-.028-.005.607.607,0,0,0-.121.031l-.009,0,0,0h0l-.007,0h0l.011-.006a.369.369,0,0,0-.135.053.188.188,0,0,1,.037-.025c-.018.007-.034.017-.051.024l.011-.006-.029.013.029-.015-.072.036a8.9,8.9,0,0,0-1.167.724q-.311.228-.6.483c.087-.075.252-.214.3-.245C35.978,38.225,35.952,38.242,35.928,38.262ZM47.177,40.3a.888.888,0,0,0-.167-.17c-.106-.1-.126-.117-.135-.143l0-.008c.016,0,.024-.005.082.013a.248.248,0,0,0-.1-.128c-.1-.083-.232-.119-.337-.2s-.19-.189-.3-.27a.238.238,0,0,0-.131-.056.09.09,0,0,0-.025.006c.033.039.085.054.116.094h0a6.234,6.234,0,0,1,.7.665,2.227,2.227,0,0,0,.221.22.469.469,0,0,1-.063-.1c.012,0,.012,0,.052.031S47.168,40.309,47.177,40.3Zm-8.032-2.473c0,.006,0,.011.027.018a.093.093,0,0,0,.013-.015l-.008-.011a.042.042,0,0,1,.009-.012c.058.089.125.106.206.051-.021-.042-.055-.075-.073-.118a.188.188,0,0,0,.127-.112c.031.015.068-.007.158-.06a1.344,1.344,0,0,1,.311-.074l.041-.016a1.174,1.174,0,0,0-.208-.015.338.338,0,0,0-.09.013c-.021.006-.035.024-.055.031-.072.024-.148.035-.218.062.012.017.007.023-.043.048,0,0-.225.142-.221.173.018.01.04.008.057.021C39.154,37.821,39.15,37.822,39.146,37.831Zm8,3.973,0,0,0,0ZM35.327,39.454c-.066.044-.066.044-.189.182,0,0-.011.038.021.039a.143.143,0,0,0,.063-.025l-.03.023c.139-.07.167-.038.176,0,.018-.06.08-.077.115-.12s0-.051-.018-.049a.045.045,0,0,1-.018,0c.026-.031.066-.077.057-.1.034.012.087-.228.086-.231a.043.043,0,0,0-.008-.009.5.5,0,0,0,.211-.183c-.01-.012-.027,0-.1.026a.95.95,0,0,0,.142-.114l-.03.028a.513.513,0,0,1-.184.1.232.232,0,0,0,.014-.026h0a.377.377,0,0,0,.083-.078c-.016,0-.026.009-.059.038-.049.042-.049.042-.05.045a.345.345,0,0,0-.055.058c.019-.018.036-.038.055-.056v0l0,0,.012,0a.339.339,0,0,0-.054.064c.01,0,.013,0,.02-.017v0c.006,0,.01,0,.032-.015,0,0-.132.112-.14.12a1.024,1.024,0,0,0,.1-.065.642.642,0,0,1-.076.067l.014-.013a.31.31,0,0,0-.086.072.468.468,0,0,0,.04-.03.192.192,0,0,0-.04.054s.015,0,.081-.063c-.053.058-.062.07-.064.092s.008.008.04.009a.257.257,0,0,0-.075.087l0,0,.008,0A.5.5,0,0,1,35.327,39.454Zm12.3.768a.157.157,0,0,0-.018-.047v0a.067.067,0,0,0,0,.031l-.007,0C47.612,40.211,47.63,40.233,47.63,40.223ZM36.292,38.194c-.02.006-.041,0-.061,0a.252.252,0,0,0-.077.053c.018-.018.024-.026.025-.033s-.056.02-.117.066a.8.8,0,0,0,.118-.114h0a.761.761,0,0,0-.063.052.032.032,0,0,0,.007-.012s-.008,0-.056.043l0,0s-.006,0-.038.023h0s0,.009,0,.014h0l-.015.01a.013.013,0,0,0,0,.008l0,0s-.073.028-.072.048c0,0,0,0,.01,0-.111.081-.063.093-.062.094a.384.384,0,0,0,.177-.067c.016-.01.036-.023.051-.034a.534.534,0,0,1,.077-.061l0,0C36.2,38.277,36.205,38.263,36.292,38.194Zm10.856,3.619h0l0,0ZM35.654,38.486h0l-.006.005.052-.045Zm5.137-1.176v0a.526.526,0,0,1,.119-.017c-.041,0-.05.015-.058.03a1.358,1.358,0,0,0,.18.072.128.128,0,0,0,.1-.02.14.14,0,0,0,.025-.024h0s0,0-.02-.008-.019-.014,0-.028a.223.223,0,0,1-.13-.031.265.265,0,0,0-.146-.031l-.068,0c0,.018,0,.036-.03.03a.434.434,0,0,0,.065.01l-.069,0C40.765,37.3,40.779,37.312,40.792,37.31Zm2.251.241a.012.012,0,0,1-.009,0c.022,0,.044,0,.066,0,.076.01.149.035.225.042a.159.159,0,0,0,.092-.009c-.008-.018-.135-.038-.137-.038h0c-.032,0-.063-.012-.095-.016-.058,0-.1-.042-.161-.041-.017,0-.018.006-.02.011S43.035,37.532,43.043,37.551Zm-1.821-.138h0a.446.446,0,0,0,.179-.034l.011-.005a.294.294,0,0,0-.163-.056c-.063,0-.072.072-.052.088A.035.035,0,0,0,41.221,37.413Zm2.48.17,0-.005a.316.316,0,0,0-.189-.055.24.24,0,0,0-.08.018.2.2,0,0,1,.067.018C43.573,37.584,43.682,37.621,43.7,37.583Zm3.784,2.338s0,0,0-.009a.127.127,0,0,0-.039-.042h0a.15.15,0,0,0,.023.036C47.472,39.912,47.483,39.925,47.485,39.921Zm.075.144a0,0,0,0,0,0,0s-.008-.007-.014-.009v0C47.547,40.068,47.558,40.067,47.56,40.065Zm.064.233,0,0h-.009c-.008,0-.011.012-.008.029l0-.006s0,0,.023.053C47.637,40.362,47.648,40.347,47.624,40.3Zm-.041-.189s0,0,0-.005h0c-.006-.006-.013-.013-.016-.012S47.578,40.107,47.583,40.109Zm-8.134-2.825s.046.011.046.011a.1.1,0,0,0,.031,0c0-.005,0-.007,0-.011l.012,0c.04.016.04.016.121-.018.009.028.009.028.152-.021l-.006.01c-.01.009-.01.01-.011.014a.077.077,0,0,0,.026,0l0-.009v0c0-.011,0-.013,0-.016-.017-.008-.022-.008-.064,0l.02-.017c-.028,0-.054.014-.081.015,0,0,0,.013.029.011-.016.006-.033.009-.05.014h0a.516.516,0,0,0-.086.016l0,.007a.155.155,0,0,0-.031,0l.045-.017a.28.28,0,0,0-.067-.01.247.247,0,0,0,.05-.012c.018,0,.061.015.065,0a.01.01,0,0,0,0,0,.254.254,0,0,1-.036-.006c-.031-.014-.034-.013-.038-.012s0,0,0,.016a.5.5,0,0,1-.121.023l-.008,0c0,.005,0,.006,0,.009s0,0-.017,0a.027.027,0,0,0,0,.011h0a.157.157,0,0,0-.055,0,.069.069,0,0,0,0,.021Zm8.062,2.685a.046.046,0,0,0-.008-.01h0s0,.009.011.029A.018.018,0,0,0,47.512,39.969Zm-8.36-2.7a.4.4,0,0,1,.091,0c-.024,0-.024,0-.026.006a.005.005,0,0,0,0,0,.184.184,0,0,1-.04.006c.008.019.033.02.095.006l-.014.006a.035.035,0,0,0,.018,0c-.005.006-.016.019.011.016a.312.312,0,0,0,.047-.011h0a.089.089,0,0,0-.058,0,.072.072,0,0,0,.023-.01H39.3l.058-.015c0-.013,0-.034-.069-.033a.5.5,0,0,0-.152.035.068.068,0,0,0,.02,0Zm7.628,14.992-.088.05c.089-.061.089-.061.092-.071l-.024.006c-.16.088-.3.2-.472.275a2.712,2.712,0,0,0-.3.14c-.128.072-.141.09-.143.1a4.609,4.609,0,0,0,.888-.468Zm-.084.065a3.513,3.513,0,0,0,.536-.355l.006-.005c-.028.009-.045.035-.072.046a1.3,1.3,0,0,1,.163-.147c-.024.018-.048.036-.071.055l.033-.03C47.139,52.022,46.7,52.325,46.7,52.328Zm.83-.657c-.073.061-.14.13-.211.193.009-.005.017-.013.026-.019l-.009.011c.071-.066.141-.134.214-.2ZM46.382,38.314h0Zm0,0h0ZM35.012,39.652a.984.984,0,0,0,.33-.3c.019-.024.078-.1.038-.094h-.008c-.074.024-.123.087-.193.117a.11.11,0,0,1-.052.065c.014.016-.012.045-.077.11C35.014,39.59,34.909,39.695,35.012,39.652ZM46.138,51.778h0l0,0Zm1.831-1.11.014-.017h0Zm-.639,1.187-.039.037A.45.45,0,0,0,47.33,51.855Zm-1.345.419c-.021,0-.042,0-.064,0a.266.266,0,0,0-.144.052c-.089.057-.161.133-.244.2a.437.437,0,0,0,.228-.1c.11-.074.2-.132.218-.14ZM38.42,42.91c.026,0,.033,0,.034,0s-.008-.009-.018-.009A.018.018,0,0,0,38.42,42.91Zm-2.145-1.419h0Zm-1.281-.524v0a.582.582,0,0,1-.023.075c-.029.086-.078.23-.036.2a.73.73,0,0,0,.14-.215c.041-.09.017-.089.009-.088a.193.193,0,0,0-.059.026C34.994,40.989,34.994,40.987,34.993,40.968ZM34,41.247l0,0h0Zm1.071-.329a1.054,1.054,0,0,0,.094-.16c.014-.03.025-.055.028-.064l-.009,0a.376.376,0,0,0-.106.144h0C35.066,40.882,35.064,40.9,35.076,40.918Zm12.206,4.618a.208.208,0,0,0-.032-.128l-.006.011c-.016.036-.041.1-.032.112.005,0,.008,0,.026-.027-.075.126-.157.256-.164.267h0l-.01.015a.583.583,0,0,0-.057.118A.547.547,0,0,0,47.283,45.535Zm.5,1.457a.158.158,0,0,0,0-.056l-.049.011c-.129.026-.26.034-.388.065a.127.127,0,0,0-.078.048.225.225,0,0,0-.021.04c-.028.064-.04.133-.062.2-.042.125-.139.222-.176.349a3.069,3.069,0,0,0-.028.389.16.16,0,0,1,.111,0,1.573,1.573,0,0,1,.129-.411c.026.038.03.043.016.159-.02.163.067.132.085.124a.263.263,0,0,0-.022.13l.01.006a.3.3,0,0,0,.094-.206.12.12,0,0,0-.05.029,2.046,2.046,0,0,0-.04-.39c.083.1.129-.143.228-.168h0c-.108-.02-.217.043-.324-.008-.042-.02-.024-.054.062-.116a.311.311,0,0,1,.271-.046c.1.013.11.005.153-.036l-.017.022C47.778,47.021,47.778,47.021,47.786,46.992Zm.191.642c-.048,0-.117.029-.06.079a.189.189,0,0,0,.023.017l0,0h0s0,0,0,0c.083.045.167.049.192.009a.045.045,0,0,0-.011-.057.1.1,0,0,0,.015.031A.186.186,0,0,0,47.977,47.634Zm-.464-2.31h0s0,0,0,0S47.512,45.323,47.513,45.323Zm.04,1.986h0a.01.01,0,0,0-.006,0ZM47.5,45.551c.02.045.1-.029.1-.03a.066.066,0,0,0,.024-.04c0-.02-.006-.029-.029-.055a.611.611,0,0,1-.073-.092s-.005,0-.011-.01v0a.488.488,0,0,1-.006.05A.486.486,0,0,0,47.5,45.551Zm-.265,2.868.042.012,0,.007-.046.01c.008.009.008.009.038.021l0,0c.03-.008.057-.023.086-.032l-.006.014a.1.1,0,0,0,.036-.011c.011-.008.012-.023.023-.032l.007,0-.006,0h0c-.013,0-.026.006-.039,0a.225.225,0,0,0-.059.011c-.033-.037-.08,0-.081,0a.738.738,0,0,0-.285,0c-.045.008-.083.037-.128.044a.407.407,0,0,1-.1-.011.048.048,0,0,0,.027.022c-.028.021-.04,0-.062-.024a.188.188,0,0,0-.086.013c-.016-.05-.042-.062-.053-.062-.047.015-.015.055.032.115l0,0c.076.021.152-.014.228,0-.023-.057.266-.025.269-.024l0,.007C47.126,48.466,47.177,48.435,47.234,48.419Zm-1.427-.08h0A1.689,1.689,0,0,1,45.4,48.2c.08-.025.14-.088.216-.119.129-.019.208.114.332.11a2.206,2.206,0,0,1,.317-.042l.025,0c.073.015.082.05.09.082a.148.148,0,0,1-.148.027c.031.05.037.059.134.074.148.023.132.08.124.1l-.007.01c-.019.021-.116.059-.115-.036-.018.067-.155.033-.561-.07Zm.42-.078h0Zm-.41.078h.019a.1.1,0,0,0-.028,0Zm1.791.073c.007-.016-.008-.015-.027-.013a.678.678,0,0,0-.41.32.841.841,0,0,0,.148-.07h0A1.1,1.1,0,0,0,47.608,48.412Zm-.926-.661s.087-.027.016.059a.458.458,0,0,0,.06-.085c.041-.08.03-.174.069-.254.047-.1.136-.168.18-.269a.251.251,0,0,0,.024-.151c.056.071.08.03.088.009.019-.052.013-.155-.124-.354a.129.129,0,0,0,.031.017s0,0-.043-.077c.019,0,.078,0,.062-.062l.005.008.008,0a.278.278,0,0,0-.013-.06c.047.042.077-.012.074-.047a.113.113,0,0,0-.011-.033h0l0,0c.015-.017.145-.165.072-.167a.3.3,0,0,0-.1.031c.018-.012.018-.012.025-.023-.015-.007-.015-.007-.058,0,.046-.1-.032-.152-.051-.15a.044.044,0,0,0-.027.02s0-.006,0-.009-.138.007-.192.349a.072.072,0,0,0-.026-.057.511.511,0,0,0-.05.136c-.045-.011-.029-.074-.074-.086-.052.144-.287.341-.319.29a.048.048,0,0,1,0-.008.517.517,0,0,0-.047.2c-.046-.036-.15-.019-.144-.1a.269.269,0,0,0-.1.278c0,.005.073.54.164.546.028,0,.053-.043.066-.064.016.091.212.1.269.07C46.489,47.827,46.623,47.778,46.683,47.75Zm-.312-4.068-.007.01a.041.041,0,0,0,.007-.01h0Zm.71-.31c.038-.068.05-.094.044-.122l0-.006a.134.134,0,0,1,.019.068.712.712,0,0,1-.021.166.414.414,0,0,0-.014.21.215.215,0,0,0-.057-.057l0,0c-.009-.008-.009-.008-.011-.011l.011.006C46.994,43.558,47.015,43.49,47.08,43.372Zm-.01.274-.015-.015v0l.011.009Zm0-.005-.005,0h0Zm.062.082h0c-.01-.012-.019-.025-.03-.037h0A.076.076,0,0,0,47.133,43.724Zm-1.716,4.459h0c-.006-.007-.009-.01-.011-.011s0,0,0,0S45.411,48.188,45.417,48.183ZM44.41,46.34h0Zm1.067.65Zm-1.056-2.372-.018-.029c-.154.1-.154.1-.2.042a.58.58,0,0,1-.086-.262c-.035-.253-.242-.4-.363-.6-.014-.024-.031-.056-.046-.08s-.036-.052-.052-.074l-.072.006c-.013.1-.013.1-.055.153a.487.487,0,0,1-.036-.061.174.174,0,0,1-.045.047.214.214,0,0,0-.068-.008l-.023.029-.023-.023-.027.017a.115.115,0,0,1-.027-.06c-.162.374-.592.52-.756.892s-.053.772-.231,1.127a.4.4,0,0,1-.111.161c-.206.123-1.14-1.562-.848-2.121l-.031-.022a.289.289,0,0,0-.015-.064l-.032-.009a.259.259,0,0,1,.019.04c.026.1-.111.209-.192.2-.149-.022-.122-.2-.228-.26.1-.012.117-.043.13-.074a.4.4,0,0,1-.289-.1c-.187-.158-.212-.255-.221-.286-.337-.18-.721.117-1.054-.1-.033-.022-.075-.052-.109-.072-.157-.093-.34.009-.5-.068-.2-.1-.181-.386-.406-.462a.236.236,0,0,0-.046,0,.667.667,0,0,1-.128.111h0c.079.019.09.037.124.193l.239.513a.389.389,0,0,0,.633-.259c.091.1.017.239.092.34s.23.077.3.189a.213.213,0,0,1,.017.135,1.931,1.931,0,0,1-.717.885c-.01.008-1,.783-1.214.574l-.817-2.143c-.009-.024-.022-.057-.03-.082a.667.667,0,0,1-.026-.355.335.335,0,0,0-.1.274.6.6,0,0,1-.142-.343c-.1.175-.111.306.091.664a3.581,3.581,0,0,1,.381,1.091,1.156,1.156,0,0,0,.369.667,1,1,0,0,1,.259.252c.042.1,0,.136-.084.2.416.157.416.157.52.126.542-.162.542-.162.548-.133s.095.591-.766,1.672-.22,1.665-.213,1.67l0,.043c.014.209.151.385.162.595.014.263-.284.31-.355.514-.092.263.233.419.173.675a.34.34,0,0,1-.144.185c.126.119.244.232.087.649a.42.42,0,0,1-.509.3c-.069-.031-.888-.9-.923-.939a12.329,12.329,0,0,1-.8-1.089c-.145-.279-.106-.606-.232-.89l-.013-.026c0-.005-.322-.539-.257-.671-.208-.1-.626-.612-.465-.9-.18-.195.008-.509-.223-.687l-.03.029-.039-.014a.117.117,0,0,1-.065.037c-.322-.322-.322-.322-.412-.255-.431.32-.484.2-.572-.008a5.874,5.874,0,0,1-.261-1.415c-.022-.335.113-.654.1-.988l-.006.041a6.242,6.242,0,0,1,.815-1.956c.116-.169.169-.234.2-.248s.078.021.117.029.05,0,.193-.1a.731.731,0,0,1,.258-.136,2.652,2.652,0,0,1,.369-.033c.075,0,.125,0,.054.154a1.14,1.14,0,0,0-.149.329c.033.23.583.664.685.333.047-.153.105-.185.145-.186a.333.333,0,0,1,.057,0c.166.031.266.186.426.228s.292-.088.447-.054a.382.382,0,0,0,.046.074c.229-.028.329-.232.409-.4.153-.329.1-.4.08-.409,0,0-.375.011-.455.016a.707.707,0,0,1-.282-.03l.017-.032a.329.329,0,0,0-.081-.011.651.651,0,0,1,.033-.185c-.1-.107.042-.2.029-.308a.169.169,0,0,0-.214-.01.183.183,0,0,0,.014.082.391.391,0,0,0-.075.01l-.006.038a.452.452,0,0,0-.043-.08c-.027.116.06.217.042.331l-.023-.032a.107.107,0,0,1-.026.065.1.1,0,0,0-.068-.019l.025.033c-.017.016-.042.036-.06.05,0,.027-.005.063-.008.09l-.033.021a.153.153,0,0,1-.029-.251.084.084,0,0,1-.088-.076.694.694,0,0,1,.011-.217c.03-.137-.066-.246-.085-.372-.005-.033-.028-.073-.031-.106a.167.167,0,0,1,.026-.1l-.017-.036-.035.012-.034-.018c-.11.079-.151.109-.135.267s.178.253.2.41c-.052.02-.1-.015-.15-.011l0,0a.638.638,0,0,1-.108.313c-.078-.009-.128.068-.2.063-.062-.108.141-.107.193-.18.163-.227-.077-.638-.08-.642-.082-.13-.218,0-.326,0l-.027,0a2.546,2.546,0,0,0-.539.6.733.733,0,0,1-.393.378c-.051-.037-.045-.1-.077-.151l-.037.01c.073-.165.073-.165.109-.235h0l-.008.01c.284-.6.284-.6.525-.592.126.005.442-.381.32-.595a.465.465,0,0,1,.186-.075c.072-.181.838-.605.845-.608l.027.025c.084-.091.133-.207.216-.3.014-.014.033-.031.048-.044l0,0A.213.213,0,0,1,36.3,39a1.131,1.131,0,0,1-.19.208l.042,0c-.041.063-.041.063-.092.068l.017-.04c-.042.068-.039.073-.017.114,0,0,.067-.008.16-.015l-.031.021.02.035a1.809,1.809,0,0,0,.425-.08,1.148,1.148,0,0,1,.279-.318.174.174,0,0,1,.054.052c.124-.014.1-.15.163-.21.043-.038.043-.038.389-.059l-.013-.046-.04-.021,0-.026c-.31.055-.31.055-.367.035.094-.142.094-.142.45-.417-.144-.1-.184.02-.2.061-.483.187-.459.333-.447.4-.517.45-.517.45-.643.458l.015-.044a1.016,1.016,0,0,1-.135.13l-.034-.015c.065-.024.065-.024.076-.1.144.028.236-.26.275-.383a.725.725,0,0,1-.238.144l-.03-.021a.791.791,0,0,0,.034-.114c.088-.082.139-.2.256-.255l.154-.073c.191-.094.361-.221.545-.327h0a.96.96,0,0,0,.121-.083h0l.018-.017a.5.5,0,0,1-.087.014c.068-.041.145-.063.215-.1L37.419,38c.089-.007.156-.071.238-.1l0,.036c.091-.024.091-.024.106-.038l.041.007c.033-.045.04-.053.121-.081l.034.02c-.022.014-.05.033-.071.048a.667.667,0,0,1,.185-.053l-.03.022.044-.013.037.022-.086.029.136.01.007.036c.2.044.28.06.3.111.029.069-.094.153-.151.164-.109.022-.191-.063-.291-.076.064.258.064.258.135.24a.291.291,0,0,0-.029-.072c.148,0,.259-.131.41-.126l.023.03a.843.843,0,0,0,.068-.17l-.02-.032c.1-.051.15-.031.152.061-.086,0-.1.006-.115.072.2.017.344-.173.545-.159-.02.015-.046.035-.065.051.3-.015.346-.038.4-.067a1.092,1.092,0,0,0-.114-.089c.5.149.5.149.517.142a.21.21,0,0,1-.077-.18c.018-.086.13-.093.15-.178a.325.325,0,0,1,.077.017H40.1l.036.012c.052.111.031.241.088.35-.031.081-.034.09-.143.136.255-.017.227-.116.212-.17.109-.056.165.056.25.077h0c-.117-.1-.28-.147-.361-.292.056-.037.056-.037.071-.1l.031.022a.637.637,0,0,0,.012.1c.024.012.024.012.162.02-.013-.02-.013-.02-.113-.07l.036.009.028-.023-.031-.02a2,2,0,0,0,.28.043.2.2,0,0,0-.167-.1h0l.017-.007a1.926,1.926,0,0,0,.294-.036l-.035-.015c-.021-.1.031-.1.248-.1a.144.144,0,0,1,.066-.036.728.728,0,0,0,.212.011l-.031-.024H41.3c.038-.05.038-.05.09-.061.437-.009.789.317,1.226.31l.02-.029-.011-.036c.215.054.4.219.643.17l-.012-.041c.109-.035.21.02.315.029l-.024-.006-.026-.023a.5.5,0,0,1,.109.006l-.085-.036-.013-.035c.4-.034.432-.011.536.073.183.147.4.046.593.071.174.022.349.024.523.046a.182.182,0,0,1,.067.027l-.034-.011A1.02,1.02,0,0,0,45.45,38c-.156-.065-.156-.065-.174-.1a2.86,2.86,0,0,1,1.312.36H46.55a1.032,1.032,0,0,1,.174.1c-.2.1-.31-.1-.47-.134.081.054.081.054.109.075l-.019.029a3.539,3.539,0,0,1,.417.217.322.322,0,0,0-.12-.026l.027.048-.025.03a.39.39,0,0,1,.1.13l-.017.031a.474.474,0,0,0-.25-.018c.014.091.251.226.254.227a2.037,2.037,0,0,1,.412.325l0,.045a1.333,1.333,0,0,0,.131.137h0l-.016.006a1,1,0,0,0,.124.218.333.333,0,0,1,.023.089l-.028-.03h0c-.005-.012,0-.031.006-.044a11.763,11.763,0,0,0-.935-.741h0l.025-.037c-.115-.313-.33-.412-.392-.411a1.347,1.347,0,0,0,.14.094l-.036,0a.534.534,0,0,0,.033.087.688.688,0,0,0-.288-.15l-.023.026c.008.064.008.064.248.261a.118.118,0,0,1-.194.014l.028-.022h0l0,0a.573.573,0,0,0-.069-.006h-.036a.754.754,0,0,1-.083-.008l0,0c-.111.029-.232-.095-.339.021a.363.363,0,0,0,.305.545c-.115-.1-.115-.1-.129-.14,0,0,.154.1.182.175a.352.352,0,0,1,.061-.027.168.168,0,0,1-.043-.062.425.425,0,0,1,.324.144l-.035-.005a1.262,1.262,0,0,1,.665,1.247l-.041.014a.218.218,0,0,1-.094-.076l-.023.026-.018-.029a.212.212,0,0,1,.016.088l-.037-.006c.155.133.011.336.113.481.09.128.267.158.34.3a.827.827,0,0,1,.073.259.321.321,0,0,0-.066.018c0,.01,0,.024,0,.034-.2.077-.281-.3-.274-.34l.028.022c-.009-.059-.016-.076-.107-.123l0,0h-.009l0,0c-.066-.023-.137-.028-.2-.057a.114.114,0,0,1,.007-.073c-.081-.038-.116-.147-.223-.147s-.049.151-.147.149a.149.149,0,0,1-.035-.01c-.011-.082-.02-.086-.062-.1.007-.012.021-.026.023-.04,0-.029-.045-.16-.136-.122,0,0-.263.18-.138.318.153.17.381.055.555.145-.017.091-.119.146-.106.25,0,.04.009.072.167.246a2.743,2.743,0,0,0,.351.326l-.027.019c-.054-.025-.088-.082-.15-.1a.288.288,0,0,1,.16.239l-.022.024c.151.032.151.032.18.143a.112.112,0,0,1-.02.027c.038.082.037.091.03.146l-.035,0a.844.844,0,0,0,.005.388h0l.011-.011a.322.322,0,0,1-.125.253c-.11.108-.266.146-.382.246a.116.116,0,0,0-.063-.084c.037.076.044.089-.046.2,0,0-.211-.166-.256.206a.218.218,0,0,1,.073.266.213.213,0,0,1-.2.137c.012-.022.028-.052.039-.074.013-.294.013-.294.06-.324,0-.042,0-.141-.063-.17-.035-.016-.421.018-.4.237.049.407.488.6.544,1.006.02.144-.038.637-.252.478-.007.106-.105.386-.249.31l.048-.076c-.079-.316-.432-.419-.549-.705-.251.168-.171.575-.161.621.041.188.208.285.306.431.168.251.116.565.234.83.006.012.024.021.034.03-.249.046-.34-.158-.439-.6-.083-.375-.124-.5-.261-.387a.8.8,0,0,1-.018-.4,1.694,1.694,0,0,0-.269-1.147C44.494,44.586,44.465,44.6,44.421,44.618Zm-6.135-4.034c.025.011.025.011.056,0-.083.127-.065.186.093.315.1.081.123.11.132.162-.112-.017-.165.185-.157.253.013.11.111.162.189.2.023.012.024.016.026.025h0v0c.111.067.2-.046.308-.031h0c-.005-.393-.008-.63-.176-.794-.118-.116-.122-.143-.129-.187A.124.124,0,0,1,38.7,40.5c-.028-.062-.028-.062.161-.1-.029-.023-.034-.029-.02-.094.01-.045.026-.114-.116-.121s-.21.164-.345.192a.052.052,0,0,1-.043-.023C38.336,40.434,38.268,40.5,38.286,40.584ZM37.249,40.3c-.033.058.034.07.214.1.016-.041.042-.11.09-.091,0-.022,0-.026-.025-.038s-.024-.015-.023-.039a.174.174,0,0,0,.128-.037l.016-.012a.428.428,0,0,0-.368.092c.007-.006.007-.006.009-.009a.331.331,0,0,0-.036.03l.012-.01-.012.011h0l0,0Zm.2.682a.274.274,0,0,0,.249-.11c.078-.108-.072-.293-.262-.409-.135-.083-.271.069-.406,0-.007-.029-.007-.029.114-.134-.1-.054-.167-.084-.259-.039l-.012-.014.007.012,0,0a.637.637,0,0,0-.209.261.582.582,0,0,1-.175.215.149.149,0,0,1,.06.071c.019.037.047.093.077.1.169.038.286-.144.454-.106C37.22,40.857,37.314,40.968,37.45,40.98Zm5.17,4.871s-.01.006-.022.019c.011.025.014.027.015.025a.039.039,0,0,0,0-.011l0,0,0,0a.033.033,0,0,0,.007-.017S42.626,45.85,42.62,45.851Zm2.859,1.139h0Zm4.052.866h0c.041-.142.031-.281-.007-.277-.009,0-.015.009-.026.024a.179.179,0,0,1,0,.033l0,0a.026.026,0,0,0-.011.017s0,0,.014-.008a1.6,1.6,0,0,1-.006.181c0,.008-.014.015-.019.022a1.249,1.249,0,0,1-.068.117c-.017.021-.026.018-.033.013-.028-.022-.042-.032-.085.01-.007.007-.007.007-.024.1.005,0,.129.065.228-.223,0,.044,0,.058,0,.065h0v0a.1.1,0,0,0,.027-.046l.006-.016V47.86l0,0ZM42.6,45.884a1.274,1.274,0,0,1-.018.363c-.049.177-.16.015-.161.013a.413.413,0,0,1,0-.3c.026-.12.039-.2,0-.263a.029.029,0,0,1-.025-.026l.01.006,0-.006a.042.042,0,0,1,.026-.01c.012,0,.076,0,.152.1.02.024.049.071.021.107C42.595,45.871,42.594,45.873,42.6,45.884Zm-.128-.171c-.017-.021-.027-.01-.027-.01s0,.012.011.012l.015,0Zm6.369,1.736c-.164,0-.179.212-.328.235-.06.009-.026-.178-.025-.18l0,.009c.019-.174.028-.253-.088-.242a.277.277,0,0,0-.153.107c.009-.054-.009-.067-.017-.072s-.014.005-.027.026c.069.119.129.222.241.19-.041.053-.113.049-.163.084h0c.073.062-.019.141.02.206.014,0,.025,0,.08-.107a.141.141,0,0,0,.017.113c.029.041.082.046.117.079.054.051.055.058.067.4-.008-.018-.031-.072-.143.145.058-.026.123-.024.18-.049-.059.167.063.16.074.155s.116-.087.1-.127l-.008,0h0c.056-.027.056-.027.067-.039v-.01l0,.008a.183.183,0,0,0,.036-.068c.014.052.069.077.082.13.021.084-.024.17.012.253.044.1.1.052.1.051a.179.179,0,0,0,.025-.087c.015-.1-.03-.194-.016-.292s.082-.186.1-.288a.36.36,0,0,0,0-.1C49.175,47.978,49.031,47.446,48.841,47.45Zm-3.461.606a.25.25,0,0,1-.012-.035h0c.032-.015.069,0,.1-.023a.227.227,0,0,0,.086-.1.554.554,0,0,0-.02-.356c.09.153.111.19.2.141a.04.04,0,0,1,0-.066c.006,0,.014.009.019,0l-.015-.015h.005l-.008-.007h0c-.169-.163-.169-.163-.232-.119a2.322,2.322,0,0,1-.163-.286c-.023-.06-.01-.127-.039-.186-.021-.042-.043-.05-.086-.064a.059.059,0,0,0-.012.048.228.228,0,0,0-.063-.06c.018.007.018.007.031,0,.017-.062-.071-.135-.072-.136-.071-.057-.159-.088-.23-.146-.09-.074-.148-.18-.245-.247a.329.329,0,0,0-.191-.069l-.024,0c.137.027.348.466.625,1.116C45.226,47.9,45.312,48.1,45.38,48.055Zm2.893-.446,0,0h0Zm.359,1.158a7.876,7.876,0,0,1-.537.863c-.142.142-.178-.145-.178-.148-.005-.086-.005-.086.25-.559l-.064.063c0-.031.02-.057.023-.088-.031.068-.031.068-.265-.078-.09.173-.09.173-.136.185a.479.479,0,0,0-.293.368c-.045-.024-.051-.025-.117,0,.009-.083-.085-.106-.1-.173a1.79,1.79,0,0,1-.373.309h0a.305.305,0,0,1-.034.122l-.007-.019c-.019.018-.019.018-.037.061a.5.5,0,0,1,.02-.143.828.828,0,0,0-.228.209.737.737,0,0,1-.222.2c-.106.059-.23.07-.339.119-.138.062-.237.2-.4.213a.1.1,0,0,1,.012-.053.746.746,0,0,0-.336.5c-.015.059-.015.059-.035.079a.109.109,0,0,0,0-.04c-.15.175-.1.426-.227.608-.08.112-.212.175-.279.3a.1.1,0,0,0,0,.032c.069.057.264-.02.407-.077.009,0,.943-.347,1.115-.219,0,.032,0,.032-.165.319.127-.087.264-.157.382-.256-.077.15-.243.186-.361.282.05-.007.067-.019.2-.116-.005.006-.005.006-.158.139l0,0,.019.007c-.038.117-.191.152-.205.286.019.015.019.015.253-.059a.142.142,0,0,1-.059.041h.022c-.009.026-.009.026-.046.068a5.144,5.144,0,0,0,1.8-1.4l-.036.042.063-.076-.014.016.007-.009,0,0,.019-.023-.013.016a1.176,1.176,0,0,0,.155-.277c.044-.118.1-.231.139-.35s.009-.221.06-.322c.2-.406.2-.406.209-.548a.677.677,0,0,1,.119-.422h0Zm-.891-1a.068.068,0,0,0,.089-.033.05.05,0,0,0,0-.017h0a.074.074,0,0,0-.08-.056.041.041,0,0,0-.034.038C47.717,47.707,47.713,47.745,47.741,47.762Zm-.512-3.494v0Zm.314,1.839h0l-.015.016A.111.111,0,0,0,47.544,46.107Zm.374.014c0,.089.008.092.024.106a.679.679,0,0,0,.018-.082.787.787,0,0,0-.072-.477l0,0c.012-.007.012-.007.008-.106-.008.02-.016.039-.023.06l.005.027c-.039-.026-.039-.026-.049-.209.081.034.056-.09.033-.146-.031-.073-.04-.072-.113-.063-.054-.188-.054-.188-.078-.191s-.013.01-.019.034A.094.094,0,0,0,47.521,45a.059.059,0,0,0-.013.034.516.516,0,0,1-.009-.1h0a.18.18,0,0,0,0-.041s0-.011,0-.016a1.324,1.324,0,0,0-.02-.462c-.045-.113-.2-.038-.249-.146l0-.005a.046.046,0,0,0,0,.012c.018.133-.038.271.025.4a.056.056,0,0,0-.033.009.326.326,0,0,0,.092.282c.026-.015.03-.032.013-.063.037.024.037.024.02.154l-.026,0c-.02.051.008.082.11.2.06-.073-.011-.154-.059-.2a.2.2,0,0,1,.1,0,.036.036,0,0,0,.02.051c.011,0,.023-.01.009-.044.064.022.087.088.137.124a.1.1,0,0,0-.041-.071c0-.02.006-.079.067-.014a.571.571,0,0,1,.078.118h-.009c-.008.052-.008.052.075.172-.018.015-.03.019-.044,0l.011,0a.047.047,0,0,0-.01-.039c-.008.008-.012.012,0,.036l-.006-.012a.2.2,0,0,0,0,.142l-.006,0a.446.446,0,0,0,.029.055l.084.15c-.018.061-.018.061-.152.209l.006-.016c-.019-.033-.129-.026-.15.048a.781.781,0,0,1-.03.137.343.343,0,0,0,.059-.094c.042.056.151-.044.152.029,0,.054-.035.1-.018.159s.075.071.1.115C47.839,46.24,47.9,46.19,47.918,46.122Zm-.334-.376c.02,0,.062-.068.08-.105,0,0,.01-.058.012-.087.007-.092-.035-.083-.035-.083C47.6,45.5,47.548,45.743,47.584,45.745Zm.054-.432a.3.3,0,0,0,.036-.107v0a.175.175,0,0,1,.057.132.1.1,0,0,1-.007.029c-.026-.057-.054-.065-.1-.025h0v0a.1.1,0,0,0,0-.013c0-.016,0-.018,0-.019S47.635,45.307,47.638,45.314Zm.006,0h0v-.006Zm-.416-1.047h0S47.228,44.264,47.229,44.264Zm.823,2.752-.021.029c.006-.043,0-.087.007-.13s.005-.035.02-.05l-.009.005c-.029.023-.06.065-.075.2,0-.006,0-.006,0-.008a1.192,1.192,0,0,0,.008.2c.012.068.029.071.04.067-.041-.17.071-.167.072-.167a.31.31,0,0,1,.023-.2C48.091,46.951,48.049,47,48.052,47.016Zm-5.439-1.108,0,0-.017-.043,0,.015Zm-3.718,3.438-.007-.014,0,.007c-.01-.023-.011-.024-.022-.03a.673.673,0,0,0-.007.162h0a.192.192,0,0,1-.027-.06c-.039.1-.04.144-.011.39.037.306-.02.9-.2.915-.061,0-.182-.083-.224-.226s-.092-.832-.091-.837c.005-.095.1-.121.144-.185.014-.019.018-.043.033-.062a.313.313,0,0,1,.027-.029c.07-.071.078-.173.128-.255a.628.628,0,0,1,.085-.148c.054-.015.1.11.122.218A.746.746,0,0,0,38.895,49.346Zm-.015-.035a.106.106,0,0,0-.008-.018.03.03,0,0,0,0,.008ZM47.23,44.27l0-.007,0,.007Z" transform="translate(-31.341 -34.934)" fill="#fff" opacity="0.5"/>
      <g id="Group_15518" data-name="Group 15518" transform="translate(1.576 1.576)">
        <path id="Path_49579" data-name="Path 49579" d="M58.79,43.136A8.909,8.909,0,0,1,46.461,55.465,8.909,8.909,0,1,0,58.79,43.136Z" transform="translate(-45.278 -41.953)" fill="#dbdbdb" style="mix-blend-mode: multiply;isolation: isolate"/>
        <path id="Path_49580" data-name="Path 49580" d="M33.848,37c.194.019.39.029.589.029a5.923,5.923,0,0,0,5.923-5.923c0-.2-.01-.4-.029-.589A8.922,8.922,0,0,0,33.848,37Z" transform="translate(-33.848 -30.522)" fill="#262626" style="mix-blend-mode: screen;isolation: isolate"/>
      </g>
    </g>
  </g>
</svg>
