<svg xmlns="http://www.w3.org/2000/svg" width="94.018" height="94.018" viewBox="0 0 94.018 94.018">
  <g id="Layer_3" data-name="Layer 3" transform="translate(-17.037 -13.712)">
    <g id="Group_15519" data-name="Group 15519" transform="translate(17.037 13.712)">
      <circle id="Ellipse_278" data-name="Ellipse 278" cx="40.975" cy="40.975" r="40.975" transform="translate(0 80.891) rotate(-80.783)" fill="#999"/>
      <path id="Path_49578" data-name="Path 49578" d="M98.822,52.172c.418.226.813.493,1.248.686.47.207.4.009.363-.1l.1.132a.173.173,0,0,1,.149-.176l-.009-.023c-.046-.271-.046-.271.144-.495-.03.174.029.351-.013.525a.55.55,0,0,0-.079.022l-.008,0c.06.253.054.278.032.361a.128.128,0,0,1-.072-.013l-.007-.007c.128.167.341.211.5.34a1.046,1.046,0,0,1-.708.85,10.168,10.168,0,0,1,2.006,3.091.506.506,0,0,1-.062-.154,3.845,3.845,0,0,1,.679,1.485l-.027.025c-.222-.129-.192-.413-.357-.577l-.027.039a2.092,2.092,0,0,1,.085.248c-.064-.059-.064-.059-.113-.057.007.142.114.27.06.421-.074-.018-.25-.162-.16-.279a.291.291,0,0,0-.072-.045c-.038.051-.066.088.042.349a.557.557,0,0,0-.217-.021h-.037a.46.46,0,0,1-.223-.04,1.533,1.533,0,0,1,0,.576v0c-.072.326-.247.078-.3,0s-.091-.14-.168-.27l.05.27.012.066c.028.155.055.311.08.466-.147-.108-.214-.126-.254-.069a.484.484,0,0,0-.025.2.856.856,0,0,1-.025.293,1.407,1.407,0,0,0-.724-.5c.229-.013.325-.152.453-.458.113-.275.16-.375.3-.474-.317-.391-1.3-.011-1.443.361a.623.623,0,0,1,.213.113,2.978,2.978,0,0,1,.821,1.467c.079.406-.1.344-.147.308a6.527,6.527,0,0,1-.839-1.064c-.017-.021-.017-.021-.03-.021-.009.017-.013.024-.02.122a.687.687,0,0,0-.212-.306.424.424,0,0,1-.131-.506c.1-.31.635-1.83,1.625-1.259-.573-1.11-.323-1.115-.174-1.118.3-.006.3-1.375-.8-2.416a3.287,3.287,0,0,1,.424.274,3.874,3.874,0,0,0-.3-.4s0,.006,0,.038c-.034.034-.058.057-.21,0-.013-.005-1.181-.594-.511-.956a.5.5,0,0,1-.221-.168c-.2-.325-.322-.694-.522-1.02ZM56.871,38.687a2.159,2.159,0,0,0,.553-.237c.376-.19.427-.21.5-.193.015.032,0,.11-.282.264.059.032.143.028.375-.02a1.99,1.99,0,0,1,.289-.049c.033-.114.041-.141-.006-.206-.067-.09-.18-.1-.265-.163a7.264,7.264,0,0,0,1.012-.112c.431-.073.294-.306.292-.308a.491.491,0,0,0-.234-.031,2.936,2.936,0,0,0-.956.219l0,.015a1.132,1.132,0,0,0-.183.022c-.028.008-.028.048-.061.05a.323.323,0,0,0,.125.024c-.028.011-.056.022-.082.035-.114-.055-.222-.016-.371.136-.008-.066-.107-.118-.049-.191a.463.463,0,0,1-.334.044.088.088,0,0,0-.057.006c-.066.041-.085.128-.159.16.013-.038.013-.038,0-.059-.055,0-.133.124-.112.157.033.05.06,0,.1-.071.166.049.344-.028.509.043-.763.293-.763.293-.8.347C56.693,38.638,56.869,38.687,56.871,38.687Zm-9.76,3.648c.244-.152,1.353-.911,1.363-.918l-.038.039c.123-.018.152-.022.523-.232h0c.36-.229.871-.2,1.1-.65a1.471,1.471,0,0,0-.284.076c.183-.106.363-.217.55-.316-.071.074-.152.136-.227.2a1.835,1.835,0,0,0,.542-.3,1.016,1.016,0,0,0-.113.057c.111-.066.226-.127.332-.2-.034.019-.079.043-.114.06a4.454,4.454,0,0,1,.491-.454.188.188,0,0,0,.245-.108c0,.016.011.036.015.052.176.055.264-.11.4-.157-.076,0-.076,0-.2.068a1.178,1.178,0,0,1,.574-.247c.316-.1.517-.383.807-.527l-.053.011c0-.019,0-.043.006-.061.193-.116.445-.074.622-.233l-.052,0a.785.785,0,0,0,.2-.105c-.044,0-.044,0-.213.05.676-.356,1.422-.534,2.122-.828l.157-.069c-.264-.07-.264-.07-1.134.242.264-.4.955-.053,1.114-.636a.4.4,0,0,0-.13-.025,2.8,2.8,0,0,0-.557.141l-.041.02.021-.009-.008,0L55.1,37.3l-.01.005L55.1,37.3l0,0,0,0,.05-.026a1.7,1.7,0,0,0-.619.244.867.867,0,0,1,.17-.116c-.082.031-.157.077-.236.11l.05-.028-.131.061.134-.071c-.1.046-.213.106-.33.167a40.93,40.93,0,0,0-5.369,3.332q-1.432,1.05-2.766,2.22c.4-.345,1.16-.983,1.388-1.127C47.342,42.163,47.222,42.244,47.111,42.335Zm51.743,9.392a4.086,4.086,0,0,0-.766-.783c-.487-.439-.58-.537-.622-.659l.017-.035c.072-.015.112-.023.375.062a1.14,1.14,0,0,0-.449-.588c-.47-.382-1.065-.548-1.55-.9s-.875-.869-1.369-1.242a1.1,1.1,0,0,0-.6-.258.414.414,0,0,0-.117.026c.151.178.39.246.533.434l0,0a28.668,28.668,0,0,1,3.206,3.06,10.238,10.238,0,0,0,1.019,1.013,2.155,2.155,0,0,1-.289-.478c.056.015.056.015.238.141S98.813,51.749,98.855,51.727ZM61.912,40.352c.01.027.02.05.126.082a.429.429,0,0,0,.06-.068.283.283,0,0,0-.039-.049.2.2,0,0,1,.041-.057c.266.409.576.486.947.233-.094-.192-.254-.345-.338-.544a.862.862,0,0,0,.584-.517c.144.067.314-.034.725-.276a6.183,6.183,0,0,1,1.43-.342c.058-.018.132-.051.188-.073a5.4,5.4,0,0,0-.958-.071,1.556,1.556,0,0,0-.413.062c-.1.028-.16.111-.253.144-.33.112-.678.159-1,.286.056.078.03.107-.2.219-.01.005-1.033.655-1.017.8.081.047.184.037.261.1C61.952,40.306,61.934,40.312,61.912,40.352ZM98.687,58.625a.246.246,0,0,0,.016.021.144.144,0,0,0-.017-.022ZM44.347,47.82c-.3.2-.3.2-.871.839,0,0-.053.176.1.178a.657.657,0,0,0,.289-.115c-.061.048-.093.072-.137.1.64-.322.769-.174.81-.009.082-.275.366-.355.53-.552.211-.254.019-.235-.084-.226a.206.206,0,0,1-.085,0c.121-.141.3-.355.264-.447.155.057.4-1.047.4-1.061a.2.2,0,0,0-.035-.039,2.275,2.275,0,0,0,.97-.844c-.048-.054-.123-.021-.44.119a4.37,4.37,0,0,0,.654-.525l-.136.129a2.359,2.359,0,0,1-.844.443,1.071,1.071,0,0,0,.066-.119l-.019,0a1.731,1.731,0,0,0,.38-.361c-.073,0-.119.041-.273.176-.227.192-.227.192-.23.2a1.588,1.588,0,0,0-.254.265c.088-.083.168-.174.252-.26l0,.02.015.013a.141.141,0,0,0,.055-.022,1.561,1.561,0,0,0-.246.3c.044.016.061-.015.094-.078l.006.019c.029,0,.046,0,.149-.069,0,0-.608.515-.643.55a4.71,4.71,0,0,0,.475-.3,2.953,2.953,0,0,1-.349.309l.065-.06a1.424,1.424,0,0,0-.394.331,2.15,2.15,0,0,0,.184-.14.883.883,0,0,0-.185.248c.022,0,.07,0,.372-.29-.242.266-.285.321-.293.421.035.035.035.036.186.041a1.182,1.182,0,0,0-.345.4l.014.015a.184.184,0,0,0,.038-.012A2.3,2.3,0,0,1,44.347,47.82Zm56.592,3.535a.722.722,0,0,0-.081-.215l-.007-.015,0,.015a.31.31,0,0,0,.006.143l-.031-.016C100.853,51.3,100.937,51.4,100.939,51.354ZM48.787,42.024c-.092.027-.189-.019-.281.019a1.16,1.16,0,0,0-.352.245c.082-.084.112-.119.114-.151-.049-.027-.256.09-.539.3a3.688,3.688,0,0,0,.543-.524l-.015,0a3.5,3.5,0,0,0-.291.241A.145.145,0,0,0,48,42.105c-.019,0-.036-.008-.259.2a.1.1,0,0,0,.009-.021c-.016,0-.026,0-.174.1a.049.049,0,0,1,.022,0c.005.021,0,.042,0,.063l.013.007-.067.047a.062.062,0,0,0-.013.036l.01.008s-.337.13-.332.223c.016.006.018.006.048,0-.511.373-.289.43-.286.43a1.765,1.765,0,0,0,.814-.309c.072-.044.165-.106.233-.156a2.456,2.456,0,0,1,.354-.279l-.019-.011C48.363,42.406,48.388,42.339,48.787,42.024ZM98.721,58.668h0l-.016-.02Zm-52.867-15.3-.006.005-.028.025c.079-.069.158-.137.237-.206C45.97,43.265,45.9,43.327,45.854,43.366Zm23.63-5.41,0-.008a2.418,2.418,0,0,1,.545-.078c-.189.021-.23.07-.268.136a6.245,6.245,0,0,0,.83.33.59.59,0,0,0,.468-.092.64.64,0,0,0,.116-.109l0,0c-.014-.011-.014-.011-.093-.038-.1-.038-.088-.066,0-.129a1.025,1.025,0,0,1-.6-.143,1.221,1.221,0,0,0-.672-.142c-.122,0-.194.007-.311.018.017.082.022.167-.139.139a1.991,1.991,0,0,0,.3.046c-.129,0-.206,0-.318-.013C69.362,37.894,69.423,37.964,69.484,37.956Zm10.353,1.108a.056.056,0,0,1-.042.006c.1.014.2.005.3.018.349.044.685.159,1.036.193a.73.73,0,0,0,.423-.039c-.035-.082-.623-.173-.629-.174h0v0h0c-.148-.011-.289-.056-.435-.075-.266.014-.475-.194-.739-.187-.076.006-.084.028-.092.052C79.7,38.943,79.8,38.978,79.837,39.065Zm-8.378-.633h.009a2.051,2.051,0,0,0,.822-.158l.051-.025a1.352,1.352,0,0,0-.748-.26c-.292.017-.333.332-.238.406A.16.16,0,0,0,71.459,38.432Zm11.406.782c0-.007.006-.018.009-.025a1.452,1.452,0,0,0-.868-.255,1.106,1.106,0,0,0-.367.083.941.941,0,0,1,.308.084C82.277,39.214,82.778,39.388,82.865,39.214Zm17.406,10.752c0-.005,0-.019-.013-.041a.585.585,0,0,0-.179-.194v0a.689.689,0,0,0,.107.166C100.208,49.926,100.259,49.984,100.271,49.965Zm.343.661a.011.011,0,0,0,0-.012c-.006-.016-.038-.032-.066-.04v.008C100.557,50.641,100.6,50.639,100.614,50.626Zm.3,1.072-.008-.017a.076.076,0,0,0-.039-.006c-.036.012-.048.057-.037.132a.164.164,0,0,0-.011-.027c0,.01,0,.019.107.245C100.97,51.993,101.022,51.925,100.91,51.7Zm-.19-.869c.011,0,.018,0,.019-.023v0c-.026-.028-.059-.06-.073-.057S100.7,50.82,100.72,50.829ZM63.309,37.837c.017.011.21.05.212.05a.46.46,0,0,0,.143-.01c0-.025,0-.031-.021-.049l.053-.013c.184.074.184.074.556-.085.043.128.043.128.7-.1l-.027.047c-.045.042-.047.047-.053.062a.356.356,0,0,0,.12-.021l.02-.041.006-.011c.015-.052.013-.058.007-.076-.079-.035-.1-.038-.3-.02l.091-.078c-.13,0-.247.064-.375.071,0,.006.01.059.132.052-.075.027-.154.04-.23.063h0a2.382,2.382,0,0,0-.4.076l.011.033a.713.713,0,0,0-.141-.009,2.044,2.044,0,0,0,.208-.076,1.288,1.288,0,0,0-.309-.045,1.137,1.137,0,0,0,.229-.057c.084.021.279.071.3-.011a.048.048,0,0,0-.022-.02,1.166,1.166,0,0,1-.168-.028c-.141-.063-.158-.06-.176-.057s-.007.015.015.072a2.3,2.3,0,0,1-.556.1l-.038.019c.01.025.009.026.006.041s-.021.013-.078-.011a.122.122,0,0,0,.008.05l-.014,0a.72.72,0,0,0-.253-.016.32.32,0,0,0,0,.1A2.108,2.108,0,0,1,63.309,37.837Zm37.084,12.349a.21.21,0,0,0-.037-.047h-.005c-.016,0,0,.042.05.135A.083.083,0,0,0,100.393,50.186ZM61.939,37.779a1.835,1.835,0,0,1,.418-.02c-.11.019-.11.019-.121.027a.024.024,0,0,0,.007.013.847.847,0,0,1-.182.025c.038.086.152.093.436.025l-.066.025a.162.162,0,0,0,.081.006c-.025.03-.072.085.049.072a1.437,1.437,0,0,0,.214-.05L62.8,37.9a.407.407,0,0,0-.268-.02.332.332,0,0,0,.107-.046l-.036-.007c.088-.023.177-.047.266-.069,0-.058-.013-.156-.317-.15a2.317,2.317,0,0,0-.7.161.312.312,0,0,0,.091.011Zm35.085,68.956c-.136.075-.269.155-.405.229.408-.282.408-.282.424-.328l-.11.028c-.734.4-1.4.925-2.171,1.264a12.471,12.471,0,0,0-1.378.644c-.588.332-.647.412-.658.466a21.2,21.2,0,0,0,4.086-2.155Zm-.386.3a16.159,16.159,0,0,0,2.468-1.633l.028-.024c-.129.042-.209.161-.332.214a5.974,5.974,0,0,1,.752-.675c-.11.084-.221.166-.328.254.051-.046.1-.094.151-.14C98.679,105.623,96.661,107.017,96.638,107.032Zm3.815-3.024c-.338.281-.644.6-.973.888.043-.025.079-.06.119-.088a.416.416,0,0,1-.043.049c.326-.305.648-.615.983-.91ZM95.2,42.572l-.008-.005.008,0Zm-.017-.01.009,0-.008,0ZM42.9,48.728a4.524,4.524,0,0,0,1.516-1.358c.088-.108.358-.437.173-.431a.292.292,0,0,0-.038,0c-.339.11-.567.4-.887.539a.507.507,0,0,1-.238.3c.063.073-.053.209-.355.507C42.911,48.445,42.424,48.925,42.9,48.728ZM94.073,104.5l.005,0-.022.02ZM102.5,99.4l.063-.078,0,0Zm-2.939,5.462-.182.17A2.067,2.067,0,0,0,99.558,104.858Zm-6.189,1.928c-.1,0-.195-.017-.293-.016a1.222,1.222,0,0,0-.66.24c-.407.261-.742.612-1.124.9a2.011,2.011,0,0,0,1.049-.474c.506-.338.905-.606,1-.645Zm-34.8-43.07c.121.019.151.007.158,0s-.036-.042-.084-.041A.084.084,0,0,0,58.573,63.716Zm-9.868-6.528,0,0h0l0,0ZM42.812,54.78V54.8a2.675,2.675,0,0,1-.106.343c-.134.4-.359,1.058-.167.936a3.358,3.358,0,0,0,.644-.987c.19-.413.078-.408.041-.406a.89.89,0,0,0-.27.12C42.817,54.878,42.817,54.871,42.812,54.78Zm-4.546,1.283a.075.075,0,0,0,.012-.016h0A.093.093,0,0,0,38.266,56.063Zm4.928-1.512a4.847,4.847,0,0,0,.433-.734c.066-.137.113-.251.131-.294l-.041.019a1.729,1.729,0,0,0-.486.662h0C43.148,54.386,43.139,54.467,43.194,54.551ZM99.339,75.79a.955.955,0,0,0-.148-.591c-.008.015-.018.035-.026.05-.073.165-.189.452-.148.513.024-.01.039-.016.117-.122-.344.581-.72,1.176-.756,1.226h0l-.047.071a2.677,2.677,0,0,0-.263.544A2.516,2.516,0,0,0,99.339,75.79Zm2.314,6.7a.725.725,0,0,0,0-.257l-.223.048c-.591.119-1.2.154-1.784.3a.582.582,0,0,0-.358.222,1.034,1.034,0,0,0-.1.182c-.129.293-.183.609-.284.911-.192.575-.639,1.02-.812,1.6a14.111,14.111,0,0,0-.131,1.79.734.734,0,0,1,.512-.007,7.236,7.236,0,0,1,.595-1.891c.121.173.14.2.073.733-.093.749.309.608.391.572a1.211,1.211,0,0,0-.1.6l.045.026a1.387,1.387,0,0,0,.431-.947.552.552,0,0,0-.229.135,9.415,9.415,0,0,0-.186-1.793c.38.482.595-.658,1.049-.773h0c-.495-.091-1,.2-1.489-.035-.195-.092-.112-.247.287-.533a1.431,1.431,0,0,1,1.245-.21c.471.06.506.025.7-.167-.022.031-.054.072-.078.1C101.615,82.624,101.615,82.624,101.653,82.491Zm.879,2.951c-.22.012-.537.135-.276.363a.869.869,0,0,0,.107.076c-.015.011-.016.013-.021.021l.006,0c.006,0,.012-.005.022-.021.38.208.767.226.883.041a.205.205,0,0,0-.051-.261.454.454,0,0,0,.069.141A.856.856,0,0,0,102.531,85.442ZM100.4,74.814h0s0-.007-.006-.008S100.393,74.814,100.4,74.814Zm.182,9.137h0a.044.044,0,0,0-.029-.012Zm-.249-8.091c.094.2.472-.135.475-.138a.3.3,0,0,0,.11-.186c.009-.09-.027-.132-.135-.254a2.812,2.812,0,0,1-.335-.422c-.015.007-.025,0-.048-.046v.013a2.252,2.252,0,0,1-.03.232A2.236,2.236,0,0,0,100.331,75.86ZM99.114,89.052l.194.055-.015.033c-.063.017-.149.035-.213.047.038.041.038.041.176.094l.018-.015c.136-.038.262-.1.4-.145l-.028.066a.473.473,0,0,0,.165-.048c.051-.037.056-.107.1-.146a.177.177,0,0,1,.032-.017l-.029-.011h-.005c-.06-.009-.118.026-.178.007a1.033,1.033,0,0,0-.27.051c-.151-.171-.369-.009-.371-.007a3.393,3.393,0,0,0-1.31-.007c-.207.038-.382.17-.591.2a1.872,1.872,0,0,1-.449-.051.22.22,0,0,0,.126.1c-.13.094-.185.022-.284-.109a.865.865,0,0,0-.4.061c-.074-.231-.192-.286-.245-.283-.214.069-.071.252.146.531l.014-.008c.351.1.7-.065,1.05-.005-.1-.262,1.221-.114,1.235-.111l-.022.033C98.618,89.271,98.851,89.125,99.114,89.052Zm-6.565-.368h.013a7.768,7.768,0,0,1-1.891-.628c.369-.113.642-.4,1-.545.594-.087.956.526,1.528.506a10.147,10.147,0,0,1,1.46-.193c.035,0,.081.008.115.015.336.067.378.231.414.376a.682.682,0,0,1-.682.125c.143.231.17.272.615.341.682.1.608.37.569.448a.259.259,0,0,1-.032.045c-.086.1-.532.273-.531-.168-.082.309-.712.151-2.58-.321Zm1.931-.359v0h0Zm-1.884.359a.58.58,0,0,0,.088-.006h0a.446.446,0,0,0-.129-.01S92.562,88.671,92.6,88.683Zm8.239.336c.035-.075-.039-.067-.124-.058a3.116,3.116,0,0,0-1.884,1.47,3.87,3.87,0,0,0,.679-.323h0A5.07,5.07,0,0,0,100.836,89.019Zm-4.257-3.042s.4-.126.075.269a2.11,2.11,0,0,0,.275-.392c.186-.368.139-.8.315-1.169.215-.452.625-.774.827-1.236a1.156,1.156,0,0,0,.111-.7c.259.325.37.137.405.041.088-.238.061-.713-.571-1.628a.6.6,0,0,0,.143.08c0-.02,0-.02-.2-.353.086.008.361.009.285-.285l.024.035.036-.016a1.28,1.28,0,0,0-.06-.277c.216.2.353-.055.339-.215a.517.517,0,0,0-.049-.152h0l.009-.008c.069-.078.668-.76.333-.768a1.359,1.359,0,0,0-.439.144c.085-.057.085-.057.113-.107-.068-.031-.068-.031-.265-.01.21-.471-.147-.7-.235-.69a.2.2,0,0,0-.123.092c0-.013,0-.029,0-.041s-.635.035-.883,1.6a.33.33,0,0,0-.119-.264,2.348,2.348,0,0,0-.228.626c-.209-.049-.132-.342-.338-.394-.239.662-1.318,1.567-1.467,1.335a.225.225,0,0,1-.014-.038,2.379,2.379,0,0,0-.214.935c-.212-.167-.69-.086-.661-.466a1.236,1.236,0,0,0-.469,1.278c0,.025.337,2.485.756,2.512.128.009.246-.2.3-.3.073.417.974.461,1.238.323C95.69,86.328,96.307,86.1,96.579,85.978ZM95.143,67.267c-.011.015-.019.031-.031.046a.188.188,0,0,0,.031-.046v0Zm3.265-1.426c.174-.311.231-.432.2-.559l-.015-.03a.617.617,0,0,1,.086.312,3.274,3.274,0,0,1-.1.761,1.9,1.9,0,0,0-.063.964.988.988,0,0,0-.264-.262l.02.012c-.041-.036-.041-.036-.051-.05a.313.313,0,0,1,.048.027C98.012,66.692,98.109,66.379,98.408,65.841ZM98.362,67.1l-.07-.068v.008l.052.044Zm0-.024-.024-.02h0Zm.285.377.006,0c-.045-.057-.088-.116-.136-.17l0,.006A.349.349,0,0,0,98.65,67.456ZM90.757,87.965l0,0c-.026-.032-.043-.047-.051-.048s-.006,0-.006.008S90.728,87.991,90.757,87.965Zm-4.629-8.474h0Zm4.907,2.991ZM86.177,71.57l-.083-.132c-.709.458-.709.458-.909.2a2.668,2.668,0,0,1-.4-1.206c-.159-1.163-1.114-1.847-1.668-2.772-.065-.109-.144-.259-.21-.367s-.167-.238-.239-.339c-.1.01-.231.02-.33.026-.062.482-.062.482-.254.7a2.238,2.238,0,0,1-.165-.281.8.8,0,0,1-.2.217.982.982,0,0,0-.314-.038l-.107.135-.1-.107-.125.08a.528.528,0,0,1-.122-.277c-.745,1.719-2.723,2.393-3.478,4.1-.729,1.65-.242,3.551-1.064,5.182a1.854,1.854,0,0,1-.512.742c-.946.568-5.241-7.183-3.9-9.758l-.143-.1a1.33,1.33,0,0,0-.068-.3l-.148-.041a1.187,1.187,0,0,1,.087.185c.12.475-.512.963-.885.907-.687-.1-.563-.917-1.048-1.2.479-.054.539-.2.6-.339a1.826,1.826,0,0,1-1.33-.472c-.859-.725-.977-1.171-1.015-1.317-1.551-.83-3.316.539-4.849-.471-.151-.1-.347-.239-.5-.332-.721-.428-1.564.041-2.3-.312-.922-.444-.832-1.777-1.866-2.123a1.083,1.083,0,0,0-.212-.021,3.068,3.068,0,0,1-.589.509h0c.363.089.416.172.57.886l1.1,2.361a1.789,1.789,0,0,0,2.914-1.193c.419.446.078,1.1.422,1.565s1.057.355,1.372.869a.978.978,0,0,1,.077.621c-.12.6-.964,2.223-3.3,4.069-.046.036-4.581,3.6-5.586,2.639L51.542,64.22c-.043-.112-.1-.262-.14-.376a3.068,3.068,0,0,1-.119-1.633,1.543,1.543,0,0,0-.438,1.26,2.744,2.744,0,0,1-.654-1.577c-.466.805-.511,1.407.419,3.055.7,1.242.7,1.242,1.752,5.02a5.315,5.315,0,0,0,1.7,3.066,4.581,4.581,0,0,1,1.19,1.16c.193.46-.013.624-.387.922,1.915.722,1.915.722,2.393.579,2.494-.746,2.494-.746,2.518-.613.02.108.437,2.719-3.523,7.689-3.92,4.919-1.014,7.659-.98,7.682l-.022.2c.066.961.693,1.77.744,2.735.065,1.209-1.306,1.426-1.633,2.365-.421,1.21,1.074,1.929.795,3.1a1.566,1.566,0,0,1-.662.851c.578.548,1.124,1.065.4,2.983a1.933,1.933,0,0,1-2.341,1.385c-.317-.141-4.086-4.15-4.246-4.321a56.7,56.7,0,0,1-3.658-5.01c-.666-1.283-.49-2.785-1.067-4.091l-.06-.118c-.015-.025-1.482-2.48-1.181-3.087-.958-.471-2.88-2.813-2.14-4.126-.827-.9.039-2.341-1.024-3.16l-.136.132-.18-.062a.54.54,0,0,1-.3.17c-1.479-1.482-1.479-1.482-1.9-1.172-1.983,1.472-2.226.9-2.63-.037a27.02,27.02,0,0,1-1.2-6.508c-.1-1.542.519-3.008.472-4.545l-.028.189c.227-3.246,3.713-8.944,3.747-8.995.535-.778.779-1.076.929-1.14.214-.091.358.1.54.134.165.033.232.008.889-.444a3.364,3.364,0,0,1,1.188-.624,12.2,12.2,0,0,1,1.7-.151c.346-.01.575-.016.25.71a5.243,5.243,0,0,0-.687,1.515c.151,1.059,2.679,3.053,3.15,1.532.218-.7.484-.853.668-.855a1.528,1.528,0,0,1,.263,0c.764.144,1.225.854,1.962,1.048.718.189,1.343-.4,2.058-.246a1.759,1.759,0,0,0,.212.338c1.055-.128,1.512-1.067,1.879-1.821.7-1.513.459-1.822.367-1.881,0,0-1.724.049-2.094.072a3.25,3.25,0,0,1-1.3-.14l.08-.148a1.512,1.512,0,0,0-.371-.052,3,3,0,0,1,.154-.851c-.458-.49.194-.935.132-1.418a.776.776,0,0,0-.983-.048.842.842,0,0,0,.066.377,1.8,1.8,0,0,0-.343.046c-.009.052-.02.122-.029.175a2.076,2.076,0,0,0-.2-.37c-.124.532.275,1,.2,1.523l-.1-.149a.492.492,0,0,1-.119.3.482.482,0,0,0-.311-.088l.116.154c-.08.073-.192.165-.277.231-.009.125-.024.291-.037.416l-.154.1a.705.705,0,0,1-.133-1.155.386.386,0,0,1-.405-.349,3.192,3.192,0,0,1,.052-1c.139-.632-.305-1.13-.393-1.71-.023-.151-.129-.336-.144-.489a.767.767,0,0,1,.118-.442l-.08-.166-.16.057-.158-.082c-.5.363-.693.5-.619,1.228.076.747.818,1.163.936,1.888-.239.091-.458-.067-.692-.052l-.008.008a2.937,2.937,0,0,1-.5,1.44c-.357-.043-.59.311-.94.292-.284-.5.647-.494.887-.83.748-1.046-.356-2.934-.367-2.952-.378-.6-1,0-1.5-.01l-.126.007a11.709,11.709,0,0,0-2.478,2.774A3.372,3.372,0,0,1,38.3,57.775c-.236-.171-.207-.477-.352-.694l-.17.046c.335-.759.335-.759.5-1.08h0l-.036.046c1.308-2.769,1.308-2.769,2.415-2.723.58.023,2.032-1.751,1.472-2.735a2.14,2.14,0,0,1,.857-.344c.331-.832,3.854-2.784,3.885-2.795l.123.116c.387-.417.611-.952.995-1.371.064-.063.153-.144.221-.2l.018-.008a.978.978,0,0,1,.592-.29,5.2,5.2,0,0,1-.875.957l.192-.016c-.188.29-.188.29-.423.311l.078-.185c-.194.314-.181.337-.078.524,0,0,.309-.036.735-.069l-.142.1.09.161a8.32,8.32,0,0,0,1.956-.368,5.281,5.281,0,0,1,1.281-1.463.8.8,0,0,1,.247.239c.572-.066.44-.691.75-.966.2-.175.2-.175,1.791-.271l-.058-.212-.182-.095-.023-.119c-1.425.253-1.425.253-1.689.162.43-.655.43-.655,2.069-1.918-.663-.471-.848.094-.908.279-2.222.86-2.11,1.533-2.056,1.856-2.377,2.07-2.377,2.07-2.959,2.107l.07-.2a4.674,4.674,0,0,1-.619.6l-.157-.071c.3-.112.3-.112.348-.471.663.129,1.085-1.2,1.266-1.762a3.335,3.335,0,0,1-1.1.661l-.14-.1a3.636,3.636,0,0,0,.157-.524c.407-.377.64-.93,1.18-1.173.358-.168.4-.189.709-.337.877-.431,1.661-1.018,2.506-1.5l.019,0a4.413,4.413,0,0,0,.556-.38h0c.025-.023.049-.048.081-.08a2.289,2.289,0,0,1-.4.065c.313-.188.666-.289.988-.456l-.111.13c.411-.032.716-.328,1.1-.439l-.009.166c.417-.109.417-.109.487-.173l.189.032c.154-.207.182-.244.555-.375l.157.091c-.1.062-.231.151-.326.222a3.068,3.068,0,0,1,.85-.246l-.138.1.2-.062.172.1c-.119.04-.277.094-.4.135.557.037.557.037.625.046l.033.164c.936.2,1.287.278,1.385.513.133.316-.433.7-.7.755-.5.1-.878-.291-1.339-.349.3,1.186.3,1.186.623,1.1A1.338,1.338,0,0,0,57.3,42.6c.681-.021,1.19-.6,1.884-.579l.108.137a3.876,3.876,0,0,0,.312-.782l-.09-.146c.453-.235.688-.141.7.279-.4.016-.472.028-.529.333.929.077,1.581-.794,2.506-.73-.092.067-.21.161-.3.234,1.387-.067,1.591-.174,1.849-.31a5.035,5.035,0,0,0-.527-.408c2.287.684,2.287.684,2.376.655a.968.968,0,0,1-.352-.828c.081-.4.6-.43.688-.818a1.493,1.493,0,0,1,.352.077h.032l.165.057c.237.511.141,1.107.406,1.611-.142.374-.157.414-.658.625,1.174-.079,1.046-.536.977-.782.5-.257.759.259,1.149.356h0c-.54-.465-1.287-.675-1.663-1.343.257-.17.257-.17.328-.44l.142.1a2.927,2.927,0,0,0,.054.437c.108.053.108.053.745.094-.061-.09-.061-.09-.521-.32l.165.04.131-.106-.142-.092a9.207,9.207,0,0,0,1.287.2.926.926,0,0,0-.768-.465h0l.076-.034a8.857,8.857,0,0,0,1.353-.164l-.162-.069c-.095-.458.143-.454,1.143-.437a.66.66,0,0,1,.306-.166,3.347,3.347,0,0,0,.977.048l-.142-.11h.154c.176-.229.176-.229.412-.281,2.01-.042,3.631,1.459,5.639,1.424l.093-.134-.049-.166c.989.247,1.842,1.006,2.955.78l-.055-.189c.5-.162.964.092,1.447.134l-.113-.025-.121-.106a2.312,2.312,0,0,1,.5.027l-.391-.168c-.018-.048-.041-.111-.059-.159,1.856-.155,1.985-.051,2.466.334.841.675,1.818.211,2.725.325.8.1,1.607.111,2.406.21a.837.837,0,0,1,.308.126l-.156-.048a4.692,4.692,0,0,0,1.078.31c-.716-.3-.716-.3-.8-.473,1.572-.087,5.407.967,6.034,1.657h-.175a4.75,4.75,0,0,1,.8.48c-.916.48-1.425-.467-2.161-.617.372.248.372.248.5.344l-.089.135a16.276,16.276,0,0,1,1.919,1,1.48,1.48,0,0,0-.553-.12l.123.222-.114.14a1.8,1.8,0,0,1,.462.6l-.077.144a2.179,2.179,0,0,0-1.148-.082c.066.417,1.155,1.038,1.166,1.044a9.37,9.37,0,0,1,1.894,1.493l-.022.205a6.13,6.13,0,0,0,.6.632h0l-.075.03a4.622,4.622,0,0,0,.571,1,1.529,1.529,0,0,1,.107.409l-.13-.14-.006-.006c-.025-.056.012-.142.027-.2-1.256-1.36-2.928-2.2-4.3-3.41h.007c.035-.052.08-.121.115-.172-.53-1.44-1.52-1.9-1.8-1.89a6.2,6.2,0,0,0,.643.431l-.165.009a2.459,2.459,0,0,0,.151.4,3.166,3.166,0,0,0-1.325-.69l-.107.119c.039.295.039.295,1.141,1.2a.542.542,0,0,1-.89.063l.131-.1h0l-.023-.012a2.639,2.639,0,0,0-.319-.026H92.86a3.471,3.471,0,0,1-.384-.036l.02.016c-.513.135-1.068-.435-1.557.095a1.669,1.669,0,0,0,1.4,2.507c-.531-.479-.531-.479-.593-.645.007,0,.709.441.835.8a1.621,1.621,0,0,1,.28-.126.773.773,0,0,1-.2-.283,1.956,1.956,0,0,1,1.489.663L94,47.934c2.79,1.658,3.5,4.8,3.06,5.737l-.186.066a1,1,0,0,1-.434-.348l-.107.119-.084-.135a.973.973,0,0,1,.075.406l-.17-.027c.712.61.052,1.544.52,2.211.413.588,1.226.725,1.564,1.4a3.805,3.805,0,0,1,.335,1.193,1.476,1.476,0,0,0-.3.082c0,.046,0,.108,0,.154-.922.353-1.291-1.4-1.262-1.564l.128.1c-.043-.27-.072-.349-.492-.564l.019-.014-.041,0,.019.015c-.3-.106-.632-.129-.929-.261a.525.525,0,0,1,.034-.338c-.373-.177-.532-.678-1.024-.675-.454,0-.224.694-.678.684a.686.686,0,0,1-.161-.047c-.048-.379-.094-.393-.287-.453.031-.055.1-.121.1-.184.019-.135-.207-.734-.626-.563-.014.005-1.208.828-.635,1.463.706.783,1.753.252,2.554.666-.079.418-.547.671-.489,1.148.023.184.041.33.769,1.133a12.614,12.614,0,0,0,1.616,1.5l-.123.085c-.251-.114-.406-.375-.688-.439a1.326,1.326,0,0,1,.736,1.1l-.1.11c.7.149.7.149.829.659a.513.513,0,0,1-.092.123c.177.379.172.418.138.67l-.159.022a3.88,3.88,0,0,0,.025,1.783h0l.05-.05a1.482,1.482,0,0,1-.576,1.163c-.507.5-1.225.67-1.757,1.13a.532.532,0,0,0-.29-.384c.171.348.2.41-.211.941-.009-.01-.972-.764-1.179.949a1,1,0,0,1,.334,1.225.98.98,0,0,1-.927.629c.057-.1.128-.238.18-.342.061-1.353.061-1.353.278-1.488,0-.195,0-.65-.292-.782-.159-.072-1.938.085-1.818,1.089.225,1.873,2.243,2.776,2.5,4.629.093.66-.175,2.93-1.161,2.2-.03.49-.484,1.775-1.144,1.428l.219-.351C91.3,75.476,89.672,75,89.134,73.687c-1.154.773-.788,2.644-.742,2.855.186.863.957,1.31,1.409,1.984.775,1.156.534,2.6,1.077,3.818.025.057.11.1.157.138-1.146.211-1.564-.727-2.019-2.774-.382-1.723-.572-2.281-1.2-1.78a3.668,3.668,0,0,1-.083-1.848A7.79,7.79,0,0,0,86.494,70.8C86.51,71.423,86.378,71.482,86.177,71.57ZM57.957,53.014c.113.051.113.051.255-.005-.381.586-.3.857.43,1.45.458.372.566.5.607.745-.514-.079-.759.851-.721,1.165.061.5.51.746.871.941.106.057.11.073.119.114h.013l-.006.014c.509.306.934-.212,1.418-.144l.01,0c-.023-1.806-.038-2.9-.811-3.654-.543-.533-.562-.656-.593-.86a.573.573,0,0,1,.316-.155c-.129-.286-.129-.286.74-.463-.135-.106-.158-.135-.092-.433.047-.209.117-.525-.534-.556-.712-.034-.966.756-1.587.885a.241.241,0,0,1-.2-.1C58.19,52.324,57.876,52.625,57.957,53.014ZM53.188,51.7c-.154.267.156.32.984.462.072-.189.192-.5.415-.42,0-.1,0-.119-.117-.176s-.109-.069-.1-.179a.8.8,0,0,0,.587-.17c.022-.016.05-.038.072-.054a1.968,1.968,0,0,0-1.693.421c.031-.028.031-.028.04-.043a1.519,1.519,0,0,0-.164.136l.057-.048-.057.052-.007,0-.016.013Zm.925,3.135a1.259,1.259,0,0,0,1.144-.508c.357-.5-.331-1.346-1.2-1.881-.622-.381-1.245.319-1.868,0-.033-.134-.033-.134.522-.619-.458-.25-.768-.386-1.19-.178l-.056-.065.032.055.016.013a2.93,2.93,0,0,0-.961,1.2,2.677,2.677,0,0,1-.8.987.686.686,0,0,1,.274.327c.086.17.215.427.355.458.776.177,1.314-.663,2.089-.488C53.055,54.27,53.488,54.781,54.113,54.836Zm23.779,22.4c-.022,0-.048.027-.1.085.051.113.066.124.069.113a.181.181,0,0,0-.006-.052l.019-.008.012-.012a.151.151,0,0,0,.031-.079C77.92,77.273,77.921,77.238,77.893,77.241Zm13.149,5.24h0Zm18.636,3.984-.01,0c.189-.655.141-1.293-.033-1.273-.042.014-.07.04-.121.113a.824.824,0,0,1,.015.152.04.04,0,0,0-.022-.014.119.119,0,0,0-.049.08c.022,0,.022,0,.063-.036a7.369,7.369,0,0,1-.026.832c-.014.037-.066.067-.087.1a5.743,5.743,0,0,1-.314.536c-.077.1-.12.085-.152.061-.129-.1-.194-.149-.393.047-.033.032-.033.032-.11.447.024.013.592.3,1.048-1.027-.007.2,0,.266.02.3l.016,0,0,.011a.482.482,0,0,0,.126-.21l.029-.075.005-.03-.013.011C109.671,86.483,109.675,86.472,109.678,86.464ZM77.8,77.395a5.861,5.861,0,0,1-.082,1.671c-.225.815-.737.068-.741.059a1.9,1.9,0,0,1-.007-1.363c.12-.553.18-.911-.008-1.211a.132.132,0,0,1-.116-.119l.046.028-.022-.028a.192.192,0,0,1,.118-.044c.055,0,.349.012.7.445.091.113.225.327.1.494C77.777,77.335,77.772,77.341,77.8,77.395Zm-.591-.787c-.08-.1-.125-.046-.125-.045s-.021.055.049.057a.3.3,0,0,0,.071-.01Zm29.3,7.986c-.752.013-.824.975-1.51,1.081-.278.043-.119-.82-.116-.829l-.016.039c.089-.8.129-1.165-.405-1.112a1.273,1.273,0,0,0-.7.491c.042-.25-.042-.307-.078-.331-.046.018-.066.025-.123.119.32.547.6,1.02,1.11.875-.19.246-.518.224-.751.388l0,0c.336.287-.087.647.091.949.066.006.114.01.367-.491a.647.647,0,0,0,.078.52c.133.19.379.211.539.361.25.235.251.265.309,1.855-.035-.082-.141-.333-.657.665.265-.118.564-.108.829-.226-.27.769.292.736.339.711s.533-.4.453-.584l-.036-.007h0c.255-.126.255-.126.31-.179l0-.047.014.037a.841.841,0,0,0,.164-.311c.064.238.318.356.377.6.094.384-.112.782.055,1.163.2.465.44.239.443.236a.822.822,0,0,0,.116-.4c.071-.454-.138-.892-.075-1.345.064-.468.379-.854.44-1.323a1.654,1.654,0,0,0-.021-.449C108.041,87.022,107.379,84.579,106.505,84.594ZM90.588,87.38a1.156,1.156,0,0,1-.055-.16l0,0h.006c.145-.071.32-.014.461-.1a1.043,1.043,0,0,0,.394-.446,2.546,2.546,0,0,0-.093-1.639c.414.705.513.873.915.65a.183.183,0,0,1,.014-.3c.026.016.065.04.087.023l-.071-.071.023,0-.036-.03h0l0,0c-.777-.748-.777-.748-1.067-.549a10.679,10.679,0,0,1-.751-1.317c-.105-.276-.044-.585-.179-.854-.1-.194-.2-.228-.4-.3a.27.27,0,0,0-.054.219,1.049,1.049,0,0,0-.288-.274c.082.034.082.034.144.019.08-.286-.328-.62-.332-.624-.326-.264-.732-.4-1.056-.672-.412-.342-.681-.826-1.126-1.135a1.511,1.511,0,0,0-.879-.32c-.037,0-.074,0-.111.007.628.126,1.6,2.143,2.873,5.133C89.877,86.679,90.276,87.58,90.588,87.38Zm13.307-2.053.018-.012h0A.089.089,0,0,0,103.895,85.327Zm1.651,5.325c-.961,1.237-1.34,2.837-2.472,3.968-.654.653-.816-.667-.817-.681-.025-.4-.025-.4,1.15-2.573-.073.076-.073.076-.293.288,0-.143.091-.264.1-.405-.141.311-.141.311-1.217-.36-.416.8-.416.8-.626.853a2.2,2.2,0,0,0-1.349,1.694c-.208-.11-.236-.116-.536,0,.041-.383-.389-.487-.473-.8A8.231,8.231,0,0,1,97.3,94.061h0a1.4,1.4,0,0,1-.158.562c-.009-.026-.021-.06-.03-.085-.087.085-.087.085-.171.281a2.29,2.29,0,0,1,.091-.656,3.81,3.81,0,0,0-1.05.962,3.388,3.388,0,0,1-1.021.941c-.489.273-1.056.322-1.561.549-.635.285-1.089.911-1.84.98a.476.476,0,0,1,.054-.242,3.433,3.433,0,0,0-1.546,2.317c-.071.272-.071.272-.161.362a.5.5,0,0,0-.017-.182c-.691.805-.442,1.961-1.046,2.8-.369.513-.975.805-1.284,1.375a.436.436,0,0,0-.016.147c.319.261,1.215-.093,1.87-.353.043-.017,4.339-1.595,5.127-1.009.014.146.014.146-.757,1.468.582-.4,1.215-.724,1.759-1.179-.354.689-1.115.855-1.662,1.3.229-.03.308-.088.927-.533-.023.03-.023.03-.726.637l.011-.008.087.032c-.176.538-.879.7-.945,1.318.086.071.086.071,1.163-.271a.654.654,0,0,1-.272.19l.1,0c-.042.12-.042.12-.212.315a23.66,23.66,0,0,0,8.281-6.42c-.05.058-.117.136-.166.2q.144-.175.288-.352l-.063.075.031-.039.018-.021.085-.106-.058.072a5.41,5.41,0,0,0,.715-1.276c.2-.541.458-1.061.641-1.61.162-.482.043-1.016.278-1.483.937-1.866.937-1.866.964-2.522a3.114,3.114,0,0,1,.545-1.939l0,0h0s0,0-.01,0A.036.036,0,0,0,105.546,90.652Zm-4.1-4.622a.314.314,0,0,0,.408-.154.23.23,0,0,0,.013-.079h0a.342.342,0,0,0-.367-.259.186.186,0,0,0-.158.176C101.336,85.78,101.317,85.954,101.449,86.03ZM99.095,69.959l0-.008,0-.008v.008Zm1.445,8.46,0,0a.789.789,0,0,1-.068.075A.512.512,0,0,0,100.54,78.419Zm1.721.066c.022.411.035.423.111.489a3.124,3.124,0,0,0,.084-.378,3.622,3.622,0,0,0-.331-2.192l.008-.013c.057-.03.057-.03.035-.488-.036.091-.075.182-.107.275.007.038.017.088.025.126-.179-.119-.179-.119-.225-.961.372.156.259-.416.151-.669-.143-.337-.186-.332-.519-.289-.251-.865-.251-.865-.358-.879-.059.045-.059.045-.086.157a.434.434,0,0,0-.613-.32.27.27,0,0,0-.059.158,2.369,2.369,0,0,1-.042-.455l.006,0a.827.827,0,0,0,.011-.188c0-.022-.009-.05-.01-.072a6.088,6.088,0,0,0-.09-2.125c-.209-.518-.922-.176-1.145-.671l-.014-.025a.213.213,0,0,0,.023.057c.084.612-.176,1.247.116,1.846a.257.257,0,0,0-.151.04,1.5,1.5,0,0,0,.421,1.3c.121-.068.138-.149.059-.289.171.112.171.112.093.707l-.117.017c-.091.234.035.376.5.906.276-.336-.051-.707-.271-.9a.927.927,0,0,1,.462-.02.166.166,0,0,0,.093.236c.051-.022.1-.046.042-.2.292.1.4.4.632.568a.466.466,0,0,0-.191-.328c.006-.09.026-.364.308-.066a2.627,2.627,0,0,1,.36.544l-.041,0c-.038.24-.038.24.346.79-.081.069-.136.086-.2,0l.048-.013a.216.216,0,0,0-.044-.182c-.039.038-.057.054-.022.165l-.026-.054a.925.925,0,0,0,.012.651l-.026-.008a2.045,2.045,0,0,0,.135.251l.389.692c-.084.28-.084.28-.7.961l.026-.074c-.088-.15-.593-.122-.691.22a3.591,3.591,0,0,1-.138.632,1.58,1.58,0,0,0,.27-.433c.192.257.7-.2.7.133,0,.247-.161.475-.082.731s.347.325.473.531C101.9,79.031,102.184,78.8,102.261,78.485Zm-1.538-1.73c.092.006.286-.311.369-.483,0,0,.047-.268.057-.4.034-.422-.159-.383-.161-.383C100.789,75.645,100.559,76.744,100.723,76.755Zm.251-1.986a1.393,1.393,0,0,0,.168-.492l0-.022a.8.8,0,0,1,.263.606.479.479,0,0,1-.03.131c-.118-.264-.249-.3-.438-.116v0l0,.013a.478.478,0,0,0,.008-.061c0-.075.009-.083.015-.089S100.961,74.74,100.974,74.769Zm.03-.012.012,0,0-.029ZM99.09,69.943v0h0S99.09,69.941,99.09,69.943ZM102.875,82.6c-.031.044-.062.089-.095.132.027-.2,0-.4.034-.6.025-.162.025-.162.093-.231l-.042.025c-.132.105-.276.3-.343.93-.009-.027-.009-.027-.019-.038a5.48,5.48,0,0,0,.038.912c.057.312.131.326.182.308-.186-.784.326-.768.331-.767a1.426,1.426,0,0,1,.1-.943C103.058,82.3,102.862,82.532,102.875,82.6ZM77.858,77.5l.013.021c-.025-.067-.052-.133-.078-.2l.007.069C77.818,77.432,77.837,77.469,77.858,77.5Zm-17.1,15.812-.031-.065.01.033c-.046-.108-.049-.109-.1-.136a3.1,3.1,0,0,0-.034.744h0a.882.882,0,0,1-.122-.275c-.18.446-.186.663-.049,1.8.17,1.406-.094,4.151-.9,4.21-.282.021-.837-.384-1.032-1.04-.184-.619-.421-3.827-.42-3.848.025-.435.452-.557.661-.849.063-.088.085-.2.15-.286a1.442,1.442,0,0,1,.123-.133c.32-.328.36-.8.589-1.171a2.888,2.888,0,0,1,.39-.681c.247-.069.44.507.559,1A3.434,3.434,0,0,0,60.758,93.316Zm-.071-.161a.485.485,0,0,0-.035-.082.14.14,0,0,0,.014.038ZM99.1,69.969l-.009-.031c0,.01.006.02.009.03Z" transform="translate(-26.013 -27.03)" fill="#535353"/>
      <g id="Group_15518" data-name="Group 15518" transform="translate(7.251 7.25)">
        <path id="Path_49579" data-name="Path 49579" d="M103.171,43.136a40.978,40.978,0,0,1-56.71,56.71,40.976,40.976,0,1,0,56.71-56.71Z" transform="translate(-41.021 -37.695)" fill="#dbdbdb" style="mix-blend-mode: multiply;isolation: isolate"/>
        <path id="Path_49580" data-name="Path 49580" d="M33.848,60.341c.891.088,1.794.135,2.709.135A27.245,27.245,0,0,0,63.8,33.231c0-.914-.047-1.818-.135-2.709A41.039,41.039,0,0,0,33.848,60.341Z" transform="translate(-33.848 -30.522)" fill="#262626" style="mix-blend-mode: screen;isolation: isolate"/>
      </g>
    </g>
  </g>
</svg>
